# xmcd CD database file generated by LOLA_Freedb v0.9beta0
# 
# Track frame offsets:
#      150
#      8618
#      18173
#      27356
#      38360
#      49811
#      60107
#      71609
#      80611
#      89545
#      99826
#      110386
# 
# Disc length: 1568 seconds
# 
# Revision: 0 
# Processed by: cddbd v1.5.2PL0 Copyright (c) Steve Scherf et al.
# Submitted via: LOLA_Freedb v0.9beta0
# 
DISCID=7e061e0c
DTITLE=Don Reno and Bobby Thompson - BANJO BONANZA
DYEAR=1983
DGENRE=
TTITLE0=Foggy Mountain Breakdown
TTITLE1=Crippie Creek
TTITLE2=The Ballad Of Jeb Clampett
TTITLE3=Guitar Boogie
TTITLE4=Under The Double Eagle
TTITLE5=Rocky Top
TTITLE6=The Wabash Cannonball
TTITLE7=George M. Cohan Medley: Yankee Doodle Boy/ Give My Regards to Broadway/ You're a Grand Ole Flag
TTITLE8=Medley: Jesse James/ She'll Be Comin' Round the Mountain
TTITLE9=This Land is Your Land
TTITLE10=Ole Joe Clark
TTITLE11=Dueling Banjos
EXTD=
EXTT0=
EXTT1=
EXTT2=
EXTT3=
EXTT4=
EXTT5=
EXTT6=
EXTT7=
EXTT8=
EXTT9=
EXTT10=
EXTT11=
PLAYORDER=
